<svg width="520" height="24" viewBox="0 0 520 24" fill="none" xmlns="http://www.w3.org/2000/svg">
<path d="M15.3 4.35001H1.7C0.76245 4.35001 0 5.11246 0 6.05001V17.95C0 18.8876 0.76245 19.65 1.7 19.65H15.3C16.2376 19.65 17 18.8876 17 17.95V6.05001C17 5.11246 16.2376 4.35001 15.3 4.35001ZM1.7 17.95V7.75001H6.8V17.95H1.7ZM8.5 17.95V7.75001H15.3V6.05001L15.3017 17.95H8.5Z" fill="white"/>
<path d="M3.4 10.3H5.1V12H3.4V10.3ZM3.4 13.7H5.1V15.4H3.4V13.7Z" fill="white"/>
<path fill-rule="evenodd" clip-rule="evenodd" d="M508.645 5.26375C508.248 5.02488 507.752 5.02488 507.355 5.26375L506.839 5.57464C505.458 6.40635 503.907 6.91671 502.302 7.06794L501.977 7.09859C501.848 7.11069 501.75 7.2185 501.75 7.34749V8.99137C501.75 11.4989 502.768 13.899 504.571 15.6419L507.826 18.7889C507.923 18.8825 508.077 18.8825 508.174 18.7889L511.429 15.6419C513.232 13.899 514.25 11.4989 514.25 8.99137V7.34749C514.25 7.2185 514.152 7.11069 514.023 7.09859L513.698 7.06794C512.093 6.91671 510.542 6.40635 509.161 5.57464L508.645 5.26375ZM506.581 3.97873C507.454 3.45322 508.546 3.45322 509.419 3.97873L509.935 4.28962C511.123 5.00527 512.458 5.44443 513.839 5.57456L514.164 5.6052C515.063 5.68989 515.75 6.44458 515.75 7.34749V8.99137C515.75 11.9055 514.567 14.6948 512.472 16.7203L509.216 19.8673C508.538 20.5231 507.462 20.5231 506.784 19.8673L503.528 16.7203C501.433 14.6948 500.25 11.9055 500.25 8.99137V7.34749C500.25 6.44458 500.937 5.68989 501.836 5.6052L502.161 5.57456C503.542 5.44443 504.877 5.00528 506.065 4.28962L506.581 3.97873Z" fill="white"/>
</svg>
