<svg width="534" height="28" viewBox="0 0 534 28" fill="none" xmlns="http://www.w3.org/2000/svg">
<rect width="534" height="27.4106" rx="5.07605" fill="#C5C5C5"/>
<path d="M514.446 9.60329C514.52 9.48731 514.537 9.34485 514.495 9.21444C514.453 9.08402 514.355 8.97912 514.228 8.92811L511.995 8.03318C511.829 7.96648 511.639 8.00206 511.508 8.12444C511.377 8.24683 511.328 8.43393 511.384 8.60444L511.713 9.61916C511.696 9.62553 511.68 9.63286 511.665 9.64119C509.217 10.9422 508.287 13.9813 509.588 16.4293C510.889 18.8772 513.928 19.807 516.376 18.506C518.824 17.205 519.754 14.1659 518.453 11.7179C518.039 10.9395 517.449 10.3136 516.757 9.86471C516.543 9.72581 516.257 9.7867 516.118 10.0007C515.979 10.2147 516.04 10.5008 516.254 10.6397C516.818 11.0054 517.299 11.5151 517.637 12.1515C518.699 14.1489 517.94 16.6286 515.943 17.6901C513.945 18.7517 511.465 17.993 510.404 15.9957C509.36 14.031 510.077 11.5995 512.001 10.5102L512.333 11.5341C512.389 11.7046 512.538 11.8277 512.715 11.85C512.893 11.8722 513.068 11.7896 513.164 11.638L514.446 9.60329Z" fill="black"/>
<path fill-rule="evenodd" clip-rule="evenodd" d="M229.12 12.2077L229.272 13.5706L228.965 13.5951C228.538 13.6292 228.189 13.9504 228.12 14.3735C227.96 15.3485 227.96 16.3431 228.12 17.3181C228.189 17.7412 228.538 18.0624 228.965 18.0965L229.626 18.1492C230.668 18.2325 231.716 18.2325 232.759 18.1492L233.419 18.0965C233.847 18.0624 234.195 17.7412 234.265 17.3181C234.424 16.3431 234.424 15.3485 234.265 14.3735C234.195 13.9504 233.847 13.6292 233.419 13.5951L233.113 13.5706L233.264 12.2077C233.282 12.047 233.282 11.8849 233.264 11.7242L233.254 11.6338C233.147 10.6744 232.393 9.91532 231.435 9.80254C231.274 9.78359 231.111 9.78359 230.95 9.80254C229.991 9.91532 229.237 10.6744 229.13 11.6338L229.12 11.7242C229.102 11.8849 229.102 12.047 229.12 12.2077ZM231.357 10.4601C231.248 10.4472 231.137 10.4472 231.027 10.4601C230.374 10.5369 229.861 11.0537 229.788 11.7069L229.778 11.7973C229.766 11.9094 229.766 12.0225 229.778 12.1346L229.932 13.5203C230.771 13.4665 231.613 13.4665 232.452 13.5203L232.606 12.1346C232.618 12.0225 232.618 11.9094 232.606 11.7973L232.596 11.7069C232.523 11.0537 232.01 10.5369 231.357 10.4601ZM231.192 15.1837C230.827 15.1837 230.53 15.4801 230.53 15.8458C230.53 16.2115 230.827 16.5079 231.192 16.5079C231.558 16.5079 231.854 16.2115 231.854 15.8458C231.854 15.4801 231.558 15.1837 231.192 15.1837Z" fill="black"/>
<path d="M242.632 14.2769V17H241.937V10.9644H242.632V13.1806H242.691C242.797 12.9468 242.956 12.7611 243.169 12.6236C243.383 12.4841 243.668 12.4144 244.023 12.4144C244.332 12.4144 244.602 12.4763 244.834 12.6C245.066 12.7219 245.245 12.9095 245.373 13.1629C245.503 13.4144 245.568 13.7347 245.568 14.1237V17H244.872V14.1708C244.872 13.8113 244.779 13.5333 244.592 13.3368C244.407 13.1384 244.151 13.0392 243.823 13.0392C243.595 13.0392 243.391 13.0873 243.21 13.1836C243.031 13.2798 242.89 13.4203 242.786 13.605C242.683 13.7897 242.632 14.0136 242.632 14.2769ZM248.809 12.4733V13.0627H246.463V12.4733H248.809ZM247.146 11.3888H247.842V15.7033C247.842 15.8998 247.87 16.0471 247.927 16.1454C247.986 16.2416 248.061 16.3065 248.151 16.3399C248.244 16.3713 248.341 16.387 248.443 16.387C248.52 16.387 248.583 16.3831 248.632 16.3752C248.681 16.3654 248.72 16.3575 248.75 16.3516L248.891 16.9764C248.844 16.9941 248.778 17.0118 248.694 17.0295C248.609 17.0491 248.502 17.0589 248.372 17.0589C248.176 17.0589 247.983 17.0167 247.795 16.9322C247.608 16.8477 247.453 16.719 247.329 16.5462C247.207 16.3733 247.146 16.1552 247.146 15.8919V11.3888ZM251.823 12.4733V13.0627H249.478V12.4733H251.823ZM250.161 11.3888H250.857V15.7033C250.857 15.8998 250.885 16.0471 250.942 16.1454C251.001 16.2416 251.076 16.3065 251.166 16.3399C251.259 16.3713 251.356 16.387 251.458 16.387C251.535 16.387 251.597 16.3831 251.647 16.3752C251.696 16.3654 251.735 16.3575 251.764 16.3516L251.906 16.9764C251.859 16.9941 251.793 17.0118 251.708 17.0295C251.624 17.0491 251.517 17.0589 251.387 17.0589C251.191 17.0589 250.998 17.0167 250.81 16.9322C250.623 16.8477 250.468 16.719 250.344 16.5462C250.222 16.3733 250.161 16.1552 250.161 15.8919V11.3888ZM252.87 18.6975V12.4733H253.542V13.1924H253.624C253.675 13.1138 253.746 13.0136 253.836 12.8918C253.929 12.768 254.06 12.658 254.231 12.5617C254.404 12.4635 254.638 12.4144 254.933 12.4144C255.314 12.4144 255.65 12.5097 255.94 12.7002C256.231 12.8908 256.458 13.161 256.621 13.5107C256.784 13.8604 256.866 14.273 256.866 14.7484C256.866 15.2278 256.784 15.6434 256.621 15.9951C256.458 16.3448 256.232 16.6159 255.943 16.8084C255.655 16.999 255.322 17.0943 254.944 17.0943C254.654 17.0943 254.421 17.0462 254.246 16.9499C254.071 16.8517 253.936 16.7407 253.842 16.6169C253.748 16.4911 253.675 16.387 253.624 16.3045H253.565V18.6975H252.87ZM253.553 14.7367C253.553 15.0785 253.603 15.3801 253.704 15.6414C253.804 15.9007 253.95 16.1041 254.143 16.2514C254.335 16.3968 254.571 16.4695 254.85 16.4695C255.141 16.4695 255.383 16.3929 255.578 16.2397C255.774 16.0844 255.922 15.8762 256.02 15.6149C256.12 15.3516 256.17 15.0589 256.17 14.7367C256.17 14.4184 256.121 14.1315 256.023 13.8761C255.927 13.6187 255.78 13.4154 255.584 13.2661C255.389 13.1148 255.145 13.0392 254.85 13.0392C254.567 13.0392 254.329 13.1109 254.137 13.2543C253.944 13.3957 253.799 13.5942 253.701 13.8496C253.602 14.103 253.553 14.3987 253.553 14.7367ZM261.133 13.4871L260.508 13.6639C260.469 13.5598 260.411 13.4586 260.335 13.3604C260.26 13.2602 260.158 13.1777 260.028 13.1128C259.898 13.048 259.732 13.0156 259.53 13.0156C259.253 13.0156 259.022 13.0794 258.837 13.2071C258.655 13.3329 258.563 13.493 258.563 13.6875C258.563 13.8604 258.626 13.9969 258.752 14.0971C258.878 14.1973 259.074 14.2808 259.341 14.3476L260.013 14.5127C260.418 14.6109 260.72 14.7612 260.918 14.9636C261.116 15.164 261.216 15.4223 261.216 15.7387C261.216 15.998 261.141 16.2298 260.992 16.4342C260.844 16.6385 260.638 16.7996 260.373 16.9175C260.108 17.0354 259.799 17.0943 259.447 17.0943C258.986 17.0943 258.604 16.9941 258.301 16.7937C257.998 16.5933 257.807 16.3006 257.726 15.9155L258.386 15.7504C258.449 15.9941 258.568 16.1768 258.743 16.2986C258.92 16.4204 259.151 16.4813 259.436 16.4813C259.76 16.4813 260.017 16.4126 260.208 16.275C260.4 16.1355 260.497 15.9685 260.497 15.774C260.497 15.6168 260.442 15.4852 260.332 15.3791C260.222 15.2711 260.053 15.1905 259.825 15.1375L259.07 14.9606C258.656 14.8624 258.351 14.7101 258.157 14.5038C257.964 14.2956 257.868 14.0353 257.868 13.7229C257.868 13.4675 257.94 13.2415 258.083 13.045C258.228 12.8486 258.426 12.6943 258.675 12.5824C258.927 12.4704 259.212 12.4144 259.53 12.4144C259.978 12.4144 260.33 12.5126 260.585 12.7091C260.842 12.9056 261.025 13.1649 261.133 13.4871ZM262.77 17.0472C262.624 17.0472 262.499 16.9951 262.395 16.891C262.291 16.7868 262.239 16.6621 262.239 16.5167C262.239 16.3713 262.291 16.2465 262.395 16.1424C262.499 16.0383 262.624 15.9862 262.77 15.9862C262.915 15.9862 263.04 16.0383 263.144 16.1424C263.248 16.2465 263.3 16.3713 263.3 16.5167C263.3 16.613 263.275 16.7014 263.226 16.7819C263.179 16.8625 263.115 16.9273 263.035 16.9764C262.956 17.0236 262.868 17.0472 262.77 17.0472ZM262.77 13.6875C262.624 13.6875 262.499 13.6354 262.395 13.5313C262.291 13.4272 262.239 13.3024 262.239 13.157C262.239 13.0116 262.291 12.8869 262.395 12.7828C262.499 12.6786 262.624 12.6266 262.77 12.6266C262.915 12.6266 263.04 12.6786 263.144 12.7828C263.248 12.8869 263.3 13.0116 263.3 13.157C263.3 13.2533 263.275 13.3417 263.226 13.4223C263.179 13.5028 263.115 13.5677 263.035 13.6168C262.956 13.6639 262.868 13.6875 262.77 13.6875ZM266.682 10.6815L264.737 17.9077H264.1L266.045 10.6815H266.682ZM269.64 10.6815L267.695 17.9077H267.058L269.003 10.6815H269.64ZM270.464 17V12.4733H271.16V17H270.464ZM270.818 11.7189C270.682 11.7189 270.565 11.6727 270.467 11.5804C270.371 11.488 270.323 11.377 270.323 11.2473C270.323 11.1177 270.371 11.0067 270.467 10.9143C270.565 10.822 270.682 10.7758 270.818 10.7758C270.953 10.7758 271.069 10.822 271.166 10.9143C271.264 11.0067 271.313 11.1177 271.313 11.2473C271.313 11.377 271.264 11.488 271.166 11.5804C271.069 11.6727 270.953 11.7189 270.818 11.7189ZM273.129 14.2769V17H272.434V12.4733H273.106V13.1806H273.165C273.271 12.9507 273.432 12.7661 273.648 12.6266C273.864 12.4851 274.143 12.4144 274.485 12.4144C274.791 12.4144 275.059 12.4772 275.289 12.603C275.519 12.7268 275.698 12.9154 275.826 13.1688C275.953 13.4203 276.017 13.7386 276.017 14.1237V17H275.322V14.1708C275.322 13.8152 275.229 13.5382 275.045 13.3398C274.86 13.1394 274.607 13.0392 274.284 13.0392C274.062 13.0392 273.864 13.0873 273.689 13.1836C273.516 13.2798 273.38 13.4203 273.279 13.605C273.179 13.7897 273.129 14.0136 273.129 14.2769ZM279.304 12.4733V13.0627H276.864V12.4733H279.304ZM277.595 17V11.8485C277.595 11.5892 277.656 11.3731 277.777 11.2002C277.899 11.0273 278.057 10.8976 278.252 10.8112C278.446 10.7247 278.652 10.6815 278.868 10.6815C279.039 10.6815 279.178 10.6953 279.286 10.7228C279.394 10.7503 279.475 10.7758 279.528 10.7994L279.328 11.4006C279.292 11.3888 279.243 11.3741 279.18 11.3564C279.119 11.3387 279.039 11.3299 278.939 11.3299C278.709 11.3299 278.543 11.3878 278.44 11.5037C278.34 11.6197 278.29 11.7896 278.29 12.0136V17H277.595ZM281.931 17.0943C281.523 17.0943 281.164 16.9971 280.856 16.8025C280.549 16.608 280.309 16.3359 280.137 15.9862C279.966 15.6365 279.88 15.2278 279.88 14.7602C279.88 14.2887 279.966 13.8771 280.137 13.5254C280.309 13.1737 280.549 12.9006 280.856 12.7061C281.164 12.5116 281.523 12.4144 281.931 12.4144C282.34 12.4144 282.698 12.5116 283.004 12.7061C283.312 12.9006 283.552 13.1737 283.723 13.5254C283.896 13.8771 283.982 14.2887 283.982 14.7602C283.982 15.2278 283.896 15.6365 283.723 15.9862C283.552 16.3359 283.312 16.608 283.004 16.8025C282.698 16.9971 282.34 17.0943 281.931 17.0943ZM281.931 16.4695C282.242 16.4695 282.497 16.39 282.698 16.2308C282.898 16.0717 283.046 15.8624 283.143 15.6031C283.239 15.3438 283.287 15.0628 283.287 14.7602C283.287 14.4577 283.239 14.1757 283.143 13.9144C283.046 13.6531 282.898 13.4419 282.698 13.2808C282.497 13.1197 282.242 13.0392 281.931 13.0392C281.621 13.0392 281.365 13.1197 281.165 13.2808C280.965 13.4419 280.816 13.6531 280.72 13.9144C280.624 14.1757 280.576 14.4577 280.576 14.7602C280.576 15.0628 280.624 15.3438 280.72 15.6031C280.816 15.8624 280.965 16.0717 281.165 16.2308C281.365 16.39 281.621 16.4695 281.931 16.4695ZM285.044 17V12.4733H285.716V13.157H285.763C285.846 12.9331 285.995 12.7513 286.211 12.6118C286.427 12.4723 286.671 12.4026 286.942 12.4026C286.993 12.4026 287.057 12.4036 287.134 12.4055C287.21 12.4075 287.268 12.4104 287.307 12.4144V13.1217C287.284 13.1158 287.23 13.1069 287.145 13.0951C287.063 13.0814 286.975 13.0745 286.883 13.0745C286.663 13.0745 286.467 13.1207 286.294 13.213C286.123 13.3034 285.987 13.4291 285.887 13.5903C285.789 13.7494 285.74 13.9311 285.74 14.1355V17H285.044ZM288.132 17V12.4733H288.804V13.1806H288.863C288.957 12.939 289.109 12.7513 289.32 12.6177C289.53 12.4822 289.782 12.4144 290.077 12.4144C290.376 12.4144 290.624 12.4822 290.823 12.6177C291.023 12.7513 291.179 12.939 291.291 13.1806H291.338C291.454 12.9468 291.628 12.7611 291.86 12.6236C292.092 12.4841 292.37 12.4144 292.694 12.4144C293.099 12.4144 293.43 12.5411 293.687 12.7945C293.944 13.046 294.073 13.438 294.073 13.9704V17H293.378V13.9704C293.378 13.6364 293.286 13.3977 293.104 13.2543C292.921 13.1109 292.706 13.0392 292.458 13.0392C292.14 13.0392 291.893 13.1354 291.718 13.328C291.544 13.5185 291.456 13.7602 291.456 14.0529V17H290.749V13.8997C290.749 13.6423 290.665 13.435 290.498 13.2779C290.331 13.1187 290.116 13.0392 289.853 13.0392C289.672 13.0392 289.503 13.0873 289.346 13.1836C289.191 13.2798 289.065 13.4134 288.969 13.5844C288.875 13.7533 288.827 13.9488 288.827 14.1708V17H288.132ZM296.677 17.1061C296.39 17.1061 296.13 17.0521 295.896 16.944C295.662 16.834 295.476 16.6758 295.339 16.4695C295.201 16.2613 295.133 16.0098 295.133 15.7151C295.133 15.4557 295.184 15.2455 295.286 15.0844C295.388 14.9213 295.525 14.7936 295.696 14.7013C295.866 14.609 296.055 14.5402 296.261 14.495C296.47 14.4478 296.679 14.4105 296.889 14.383C297.164 14.3476 297.387 14.3211 297.558 14.3034C297.731 14.2838 297.857 14.2514 297.935 14.2062C298.016 14.161 298.056 14.0824 298.056 13.9704V13.9468C298.056 13.6561 297.977 13.4301 297.817 13.269C297.66 13.1079 297.422 13.0274 297.101 13.0274C296.769 13.0274 296.509 13.1001 296.32 13.2454C296.132 13.3908 295.999 13.546 295.922 13.7111L295.262 13.4753C295.38 13.2003 295.537 12.9861 295.734 12.8329C295.932 12.6776 296.148 12.5696 296.382 12.5087C296.618 12.4458 296.85 12.4144 297.078 12.4144C297.223 12.4144 297.39 12.4321 297.579 12.4674C297.769 12.5008 297.953 12.5706 298.13 12.6767C298.309 12.7828 298.457 12.9429 298.575 13.157C298.693 13.3712 298.752 13.658 298.752 14.0176V17H298.056V16.387H298.021C297.974 16.4852 297.895 16.5904 297.785 16.7023C297.675 16.8143 297.529 16.9096 297.346 16.9882C297.163 17.0668 296.94 17.1061 296.677 17.1061ZM296.783 16.4813C297.058 16.4813 297.29 16.4273 297.479 16.3192C297.669 16.2112 297.813 16.0717 297.909 15.9007C298.007 15.7298 298.056 15.55 298.056 15.3614V14.7249C298.027 14.7602 297.962 14.7927 297.862 14.8221C297.763 14.8496 297.649 14.8742 297.52 14.8958C297.392 14.9154 297.267 14.9331 297.145 14.9488C297.026 14.9626 296.928 14.9744 296.854 14.9842C296.673 15.0078 296.504 15.0461 296.347 15.0991C296.192 15.1502 296.066 15.2278 295.97 15.332C295.875 15.4341 295.828 15.5736 295.828 15.7504C295.828 15.9921 295.918 16.1748 296.096 16.2986C296.277 16.4204 296.506 16.4813 296.783 16.4813ZM299.891 17V16.4695L302.461 13.1688V13.1217H299.974V12.4733H303.357V13.0274L300.858 16.3045V16.3516H303.44V17H299.891ZM306.645 10.6815L304.7 17.9077H304.063L306.008 10.6815H306.645Z" fill="black"/>
</svg>
